# xmcd
#
# Track frame offsets: 
#        150
#        26697
#        61275
#        89875
#        118540
#        144845
#        160000
#        183040
#        208642
#        232520
#
# Disc length: 3275 seconds
#
# Revision: 0
# Processed by: cddbd v1.5.2PL0 Copyright (c) Steve Scherf et al.
# Submitted via: ExactAudioCopy v0.99pb4
#
DISCID=770cc90a
DTITLE=Loston Harris II - Stepping Stones
DYEAR=1994
DGENRE=Gospel
TTITLE0=It's About Time
TTITLE1=Stepping Stones
TTITLE2=Sarina
TTITLE3=If Even I Would Leave You
TTITLE4=Sunday Mornin'
TTITLE5=Hopscotch
TTITLE6=East of the Sun (West of the Moon)
TTITLE7=Late Last Night
TTITLE8=The Eleventh Child
TTITLE9=Last Call
EXTD=
EXTT0=
EXTT1=
EXTT2=
EXTT3=
EXTT4=
EXTT5=
EXTT6=
EXTT7=
EXTT8=
EXTT9=
PLAYORDER=
